<?xml version="1.0" encoding="UTF-8"?>
<svg version="1.1" xmlns="http://www.w3.org/2000/svg" width="186" height="188">
<path d="M0 0 C1.26085419 0.00022659 1.26085419 0.00022659 2.54718018 0.00045776 C3.44523376 0.01078033 4.34328735 0.02110291 5.26855469 0.03173828 C6.65841583 0.03598312 6.65841583 0.03598312 8.07635498 0.04031372 C11.03117878 0.05149467 13.98569774 0.07659552 16.94042969 0.10205078 C18.94563364 0.11208327 20.95084235 0.12120865 22.95605469 0.12939453 C27.8676302 0.15142721 32.77897828 0.18594283 37.69042969 0.22705078 C37.00979563 3.98010523 36.05279569 6.7327297 34.12792969 10.03955078 C33.67289062 10.82974609 33.21785156 11.61994141 32.74902344 12.43408203 C32.3996875 13.02576172 32.05035156 13.61744141 31.69042969 14.22705078 C31.03042969 14.22705078 30.37042969 14.22705078 29.69042969 14.22705078 C29.38105469 15.40267578 29.38105469 15.40267578 29.06542969 16.60205078 C27.4961993 20.73911272 25.37768624 24.22117299 23.03027344 27.95751953 C21.56139402 30.26419579 21.56139402 30.26419579 20.69042969 33.22705078 C20.03042969 33.22705078 19.37042969 33.22705078 18.69042969 33.22705078 C18.69042969 34.21705078 18.69042969 35.20705078 18.69042969 36.22705078 C20.37785278 36.24892456 20.37785278 36.24892456 22.09936523 36.27124023 C26.28360356 36.32932833 30.46730965 36.40656042 34.65112305 36.48950195 C36.45995427 36.52270192 38.26888786 36.55074919 40.07788086 36.57348633 C42.68224602 36.60712336 45.28567729 36.65944273 47.88964844 36.71533203 C48.69504562 36.72172195 49.50044281 36.72811188 50.33024597 36.73469543 C54.92151635 36.8542102 57.95565438 37.27778135 61.69042969 40.22705078 C63.71777344 42.97705078 63.71777344 42.97705078 65.62792969 46.22705078 C65.97291504 46.8080957 66.31790039 47.38914063 66.67333984 47.98779297 C69.21742325 52.30624173 71.61762433 56.69958755 73.97558594 61.12158203 C75.35982602 63.62834938 76.7838181 66.09187474 78.24902344 68.55126953 C78.70229004 69.31213867 79.15555664 70.07300781 79.62255859 70.85693359 C80.52801857 72.37062438 81.43771219 73.88179242 82.35205078 75.39013672 C82.97781006 76.43669434 82.97781006 76.43669434 83.61621094 77.50439453 C83.99173096 78.12564209 84.36725098 78.74688965 84.75415039 79.38696289 C85.73589159 81.31639794 86.24763349 83.11406353 86.69042969 85.22705078 C84.33604318 86.40424404 83.04276154 86.31611074 80.42431641 86.2487793 C79.54355438 86.22868301 78.66279236 86.20858673 77.75534058 86.18788147 C76.80321686 86.16084641 75.85109314 86.13381134 74.87011719 86.10595703 C73.89632111 86.08234604 72.92252502 86.05873505 71.91921997 86.03440857 C68.80114497 85.95767927 65.68331257 85.87369478 62.56542969 85.78955078 C60.45476458 85.73633938 58.34408754 85.68359892 56.23339844 85.63134766 C51.05225792 85.50205165 45.87129837 85.36679444 40.69042969 85.22705078 C40.29863525 84.50404785 39.90684082 83.78104492 39.50317383 83.03613281 C36.7762828 78.01778246 34.03477848 73.01917813 31.12792969 68.10205078 C28.67205116 63.92274873 26.28690388 59.71524705 23.95605469 55.46533203 C22.00672228 52.01790157 19.91695847 48.65715631 17.82714844 45.29345703 C16.69042969 43.22705078 16.69042969 43.22705078 16.69042969 41.22705078 C16.03042969 41.22705078 15.37042969 41.22705078 14.69042969 41.22705078 C14.3153125 42.24605469 14.3153125 42.24605469 13.93261719 43.28564453 C12.46345693 46.76450513 10.67867336 50.01203287 8.81542969 53.28955078 C8.43193359 53.96912842 8.0484375 54.64870605 7.65332031 55.34887695 C3.76081037 62.19689651 -0.30720689 68.93953629 -4.41064453 75.6628418 C-4.90322754 76.47422607 -5.39581055 77.28561035 -5.90332031 78.12158203 C-6.34353516 78.84192627 -6.78375 79.56227051 -7.23730469 80.30444336 C-8.45026147 82.33927736 -8.45026147 82.33927736 -9.30957031 85.22705078 C-24.48957031 85.22705078 -39.66957031 85.22705078 -55.30957031 85.22705078 C-51.71085504 76.2302626 -46.63932174 68.05481207 -41.63427734 59.78515625 C-38.3572969 54.35303207 -35.30048721 48.82163088 -32.30957031 43.22705078 C-31.18619909 41.16366319 -30.06122598 39.10114682 -28.93457031 37.03955078 C-28.43183594 36.11787109 -27.92910156 35.19619141 -27.41113281 34.24658203 C-27.04761719 33.58013672 -26.68410156 32.91369141 -26.30957031 32.22705078 C-25.64957031 32.22705078 -24.98957031 32.22705078 -24.30957031 32.22705078 C-24.2103125 31.50775391 -24.11105469 30.78845703 -24.00878906 30.04736328 C-23.21530403 26.84682588 -21.96525742 24.82817741 -20.12207031 22.10205078 C-17.0045637 17.36805926 -14.22691509 12.54522396 -11.57128906 7.53955078 C-8.61341135 2.11830123 -6.23262328 -0.03754592 0 0 Z " fill="#EB0202" transform="translate(81.3095703125,14.77294921875)"/>
<path d="M0 0 C5.60549826 0.06894972 11.21025579 0.15695228 16.81518555 0.26245117 C18.72102631 0.29565962 20.62696446 0.32370425 22.53295898 0.34643555 C25.27630015 0.38005668 28.01875222 0.43237595 30.76171875 0.48828125 C31.61086349 0.49467117 32.46000824 0.5010611 33.33488464 0.50764465 C38.02620178 0.62365489 41.19753553 0.95721303 45 4 C47.02734375 6.75 47.02734375 6.75 48.9375 10 C49.45497803 10.87156738 49.45497803 10.87156738 49.98291016 11.76074219 C52.52699356 16.07919095 54.92719464 20.47253677 57.28515625 24.89453125 C58.66939633 27.4012986 60.09338841 29.86482396 61.55859375 32.32421875 C62.01186035 33.08508789 62.46512695 33.84595703 62.93212891 34.62988281 C63.83758888 36.1435736 64.7472825 37.65474164 65.66162109 39.16308594 C66.28738037 40.20964355 66.28738037 40.20964355 66.92578125 41.27734375 C67.30130127 41.89859131 67.67682129 42.51983887 68.0637207 43.15991211 C69.0454619 45.08934716 69.5572038 46.88701275 70 49 C67.64561349 50.17719326 66.35233185 50.08905996 63.73388672 50.02172852 C62.85312469 50.00163223 61.97236267 49.98153595 61.06491089 49.96083069 C60.11278717 49.93379562 59.16066345 49.90676056 58.1796875 49.87890625 C56.71899338 49.84348976 56.71899338 49.84348976 55.22879028 49.80735779 C52.11071528 49.73062849 48.99288288 49.646644 45.875 49.5625 C43.76433489 49.5092886 41.65365785 49.45654814 39.54296875 49.40429688 C34.36182823 49.27500087 29.18086868 49.13974366 24 49 C23.60820557 48.27699707 23.21641113 47.55399414 22.81274414 46.80908203 C20.08585312 41.79073168 17.34434879 36.79212735 14.4375 31.875 C11.97865422 27.69064841 9.58307313 23.48285457 7.265625 19.21875 C6.34592262 17.60643225 5.36894533 16.02637279 4.359375 14.46875 C3.80765625 13.6128125 3.2559375 12.756875 2.6875 11.875 C1.91986328 10.72644531 1.91986328 10.72644531 1.13671875 9.5546875 C-0.32390474 6.27204913 -0.07567418 3.55798663 0 0 Z " fill="#0246DC" transform="translate(98,51)"/>
<path d="M0 0 C1.4540625 0.0309375 1.4540625 0.0309375 2.9375 0.0625 C4.2575 3.3625 5.5775 6.6625 6.9375 10.0625 C9.36344133 6.82791156 10.55906683 4.70550195 11.9375 1.0625 C12.2675 0.7325 12.5975 0.4025 12.9375 0.0625 C14.9175 0.0625 16.8975 0.0625 18.9375 0.0625 C18.9375 6.6625 18.9375 13.2625 18.9375 20.0625 C16.9575 20.0625 14.9775 20.0625 12.9375 20.0625 C12.6075 19.4025 12.2775 18.7425 11.9375 18.0625 C11.6075 18.7225 11.2775 19.3825 10.9375 20.0625 C8.0625 20.25 8.0625 20.25 4.9375 20.0625 C4.2775 19.0725 3.6175 18.0825 2.9375 17.0625 C2.6075 18.0525 2.2775 19.0425 1.9375 20.0625 C-0.0425 20.0625 -2.0225 20.0625 -4.0625 20.0625 C-4.09138514 16.91668577 -4.10925923 13.77090531 -4.125 10.625 C-4.13337891 9.72716797 -4.14175781 8.82933594 -4.15039062 7.90429688 C-4.15361328 7.05029297 -4.15683594 6.19628906 -4.16015625 5.31640625 C-4.16801147 4.13026733 -4.16801147 4.13026733 -4.17602539 2.92016602 C-3.98010202 -0.28581445 -3.26361999 0.06660449 0 0 Z " fill="#6D6D6D" transform="translate(85.0625,133.9375)"/>
<path d="M0 0 C2.31 0 4.62 0 7 0 C9.38164192 2.84260487 10 4.28405267 10 8 C10.66 8 11.32 8 12 8 C12.33 5.36 12.66 2.72 13 0 C14.65 0 16.3 0 18 0 C18 6.6 18 13.2 18 20 C11 20 11 20 9.22265625 18.25 C8.83980469 17.5075 8.45695313 16.765 8.0625 16 C7.66160156 15.2575 7.26070312 14.515 6.84765625 13.75 C6.56792969 13.1725 6.28820312 12.595 6 12 C5.67 14.64 5.34 17.28 5 20 C3.35 20 1.7 20 0 20 C0 13.4 0 6.8 0 0 Z " fill="#3A3A3A" transform="translate(144,134)"/>
<path d="M0 0 C3.4203866 1.17013226 3.91540482 1.87310723 6 5 C6.68728823 9.71511692 6.60641542 13.76190186 4.5 18.0625 C1.11280342 20.68757735 -1.7455762 21.29603347 -6 21 C-8.9291208 19.79014576 -10.42298609 18.76935187 -12.3125 16.25 C-13.58041027 12.10047548 -13.38375161 8.32837095 -12.1875 4.1875 C-9.46053171 -0.83586265 -5.08559896 -0.50342293 0 0 Z M-4 5 C-6.28773145 6.81112073 -6.95209822 7.60720543 -7.3125 10.5625 C-7.22966747 13.17796419 -7.22966747 13.17796419 -5 15 C-3.68 15 -2.36 15 -1 15 C-0.14349347 12.19954954 -0.14349347 12.19954954 0 9 C-1.81287195 6.60204619 -1.81287195 6.60204619 -4 5 Z " fill="#4E4E4E" transform="translate(72,134)"/>
<path d="M0 0 C2.5 1.125 2.5 1.125 4 3 C4.25 6.1875 4.25 6.1875 4 9 C1.625 9.125 1.625 9.125 -1 9 C-1.66 8.34 -2.32 7.68 -3 7 C-3.99 7 -4.98 7 -6 7 C-6 9.31 -6 11.62 -6 14 C-4.68 14.33 -3.36 14.66 -2 15 C-1.67 14.01 -1.34 13.02 -1 12 C0.65 12 2.3 12 4 12 C4.20086443 15.71599191 4.1519437 16.77208445 2 20 C-1.95826748 20.8435652 -4.84758082 21.20487452 -8.8125 20.5 C-12.13225308 18.22359789 -12.86108253 15.79639157 -14 12 C-13.77910261 8.24474443 -13.04207992 5.17656876 -11 2 C-7.29376793 -0.47082138 -4.29660742 -0.54464038 0 0 Z " fill="#5C5C5C" transform="translate(52,134)"/>
<path d="M0 0 C1.98 0 3.96 0 6 0 C9.16032658 6.49711809 11.27068234 12.99102311 13 20 C11.35 20.33 9.7 20.66 8 21 C7.34 20.01 6.68 19.02 6 18 C3.43717258 17.27034634 3.43717258 17.27034634 1 17 C0.34 18.32 -0.32 19.64 -1 21 C-2.98 20.67 -4.96 20.34 -7 20 C-6.02327683 17.04085422 -5.04320621 14.08282789 -4.0625 11.125 C-3.78470703 10.28324219 -3.50691406 9.44148437 -3.22070312 8.57421875 C-2.95322266 7.76855469 -2.68574219 6.96289062 -2.41015625 6.1328125 C-2.16402588 5.38918457 -1.91789551 4.64555664 -1.66430664 3.87939453 C-1 2 -1 2 0 0 Z M3 8 C4 12 4 12 4 12 Z " fill="#545454" transform="translate(129,134)"/>
<path d="M0 0 C1.98 0 3.96 0 6 0 C12 13.42857143 12 13.42857143 12 20 C10.02 20 8.04 20 6 20 C6 19.01 6 18.02 6 17 C4.02 17 2.04 17 0 17 C-0.33 17.99 -0.66 18.98 -1 20 C-2.98 20 -4.96 20 -7 20 C-5.07443364 13.14381674 -2.7527517 6.56747868 0 0 Z M2 9 C1.67 9.99 1.34 10.98 1 12 C1.99 12 2.98 12 4 12 C3.67 11.01 3.34 10.02 3 9 C2.67 9 2.34 9 2 9 Z " fill="#3E3E3E" transform="translate(17,134)"/>
<path d="M0 0 C10 0 10 0 14 2 C15.36952673 4.73905345 15.12621361 6.97087332 15 10 C14.67 10.66 14.34 11.32 14 12 C13.34 12 12.68 12 12 12 C12 12.66 12 13.32 12 14 C9.69 14 7.38 14 5 14 C5 15.98 5 17.96 5 20 C3.35 20 1.7 20 0 20 C0 13.4 0 6.8 0 0 Z M5 6 C5.33 7.32 5.66 8.64 6 10 C6.99 9.01 7.98 8.02 9 7 C7.68 6.67 6.36 6.34 5 6 Z " fill="#484848" transform="translate(109,134)"/>
<path d="M0 0 C2.8125 -0.3125 2.8125 -0.3125 6 0 C7.875 2.5 7.875 2.5 9 5 C9.37125 4.175 9.7425 3.35 10.125 2.5 C10.74375 1.675 11.3625 0.85 12 0 C15.1875 -0.3125 15.1875 -0.3125 18 0 C17.38364677 2.90199645 16.44963931 5.17049476 15 7.75 C12.86143424 11.87216299 12.32935191 15.38907332 12 20 C10.02 20 8.04 20 6 20 C5.938125 19.05125 5.87625 18.1025 5.8125 17.125 C5.21372739 12.67956702 3.19320988 9.12868885 1.05859375 5.234375 C0 3 0 3 0 0 Z " fill="#1A1A1A" transform="translate(164,134)"/>
<path d="M0 0 C1.4540625 0.0309375 1.4540625 0.0309375 2.9375 0.0625 C4.2575 3.3625 5.5775 6.6625 6.9375 10.0625 C7.5975 10.0625 8.2575 10.0625 8.9375 10.0625 C8.6075 11.3825 8.2775 12.7025 7.9375 14.0625 C7.2775 14.0625 6.6175 14.0625 5.9375 14.0625 C5.9375 13.4025 5.9375 12.7425 5.9375 12.0625 C5.2775 12.0625 4.6175 12.0625 3.9375 12.0625 C4.2675 14.3725 4.5975 16.6825 4.9375 19.0625 C4.2775 18.4025 3.6175 17.7425 2.9375 17.0625 C2.6075 18.0525 2.2775 19.0425 1.9375 20.0625 C-0.0425 20.0625 -2.0225 20.0625 -4.0625 20.0625 C-4.09138514 16.91668577 -4.10925923 13.77090531 -4.125 10.625 C-4.13337891 9.72716797 -4.14175781 8.82933594 -4.15039062 7.90429688 C-4.15361328 7.05029297 -4.15683594 6.19628906 -4.16015625 5.31640625 C-4.16801147 4.13026733 -4.16801147 4.13026733 -4.17602539 2.92016602 C-3.98010202 -0.28581445 -3.26361999 0.06660449 0 0 Z " fill="#C9C9C9" transform="translate(85.0625,133.9375)"/>
<path d="M0 0 C4.0857991 1.36193303 4.69386419 3.33365499 6.875 7 C7.22361084 7.58434814 7.57222168 8.16869629 7.93139648 8.77075195 C8.96320936 10.5085546 9.98178029 12.25419804 11 14 C11.55042969 14.92167969 12.10085937 15.84335938 12.66796875 16.79296875 C15.27612081 21.27139231 15.27612081 21.27139231 16 23 C15.67 23.66 15.34 24.32 15 25 C13.02 25 11.04 25 9 25 C8.34 23.35 7.68 21.7 7 20 C6.34 20 5.68 20 5 20 C5 18.68 5 17.36 5 16 C4.34 15.67 3.68 15.34 3 15 C3.66 14.34 4.32 13.68 5 13 C3.98339559 10.26298813 2.91603244 7.86436009 1.375 5.375 C0 3 0 3 0 0 Z " fill="#0549E0" transform="translate(140,54)"/>
<path d="M0 0 C0.33 1.32 0.66 2.64 1 4 C0.34 4 -0.32 4 -1 4 C-0.938125 4.886875 -0.87625 5.77375 -0.8125 6.6875 C-1.02064474 10.36472369 -1.78206583 12.09962455 -4 15 C-4.66 15 -5.32 15 -6 15 C-6.33 16.32 -6.66 17.64 -7 19 C-7.66 19 -8.32 19 -9 19 C-9.33 20.65 -9.66 22.3 -10 24 C-10.99 24.33 -11.98 24.66 -13 25 C-13 25.66 -13 26.32 -13 27 C1.19 27 15.38 27 30 27 C30.33 26.34 30.66 25.68 31 25 C31 25.99 31 26.98 31 28 C15.82 28 0.64 28 -15 28 C-11.06069751 18.15174378 -5.37961308 9.11987662 0 0 Z " fill="#DC8F8F" transform="translate(41,72)"/>
<path d="M0 0 C13.86 0 27.72 0 42 0 C41.02745 4.86275001 39.82739031 7.07813602 37 11 C35.875 9.25 35.875 9.25 35 7 C35.66 5.68 36.32 4.36 37 3 C24.46 2.67 11.92 2.34 -1 2 C-0.67 1.34 -0.34 0.68 0 0 Z " fill="#F49999" transform="translate(77,15)"/>
<path d="M0 0 C3.03656917 2.5988655 4.46163739 5.62071728 6.1875 9.1875 C6.71730469 10.27417969 7.24710938 11.36085938 7.79296875 12.48046875 C8.19128906 13.31191406 8.58960938 14.14335938 9 15 C7 17 7 17 5.08908081 17.20254517 C4.31186676 17.18033905 3.53465271 17.15813293 2.73388672 17.13525391 C1.85312469 17.11508209 0.97236267 17.09491028 0.06491089 17.0741272 C-0.88721283 17.04193085 -1.83933655 17.0097345 -2.8203125 16.9765625 C-3.79410858 16.95153656 -4.76790466 16.92651062 -5.77120972 16.90072632 C-8.88948644 16.81838269 -12.00714329 16.72184869 -15.125 16.625 C-17.23565155 16.56677513 -19.34632872 16.50947155 -21.45703125 16.453125 C-26.63837903 16.31278243 -31.81921448 16.15970985 -37 16 C-38.32 13.03 -39.64 10.06 -41 7 C-39.68 7 -38.36 7 -37 7 C-36.40267181 9.76264289 -36 12.16032769 -36 15 C-21.81 15 -7.62 15 7 15 C4.525 13.02 4.525 13.02 2 11 C1.6875 7.25 1.6875 7.25 2 4 C1.34 4 0.68 4 0 4 C0 2.68 0 1.36 0 0 Z " fill="#9FAFD2" transform="translate(159,84)"/>
<path d="M0 0 C5.66029124 0.09338911 11.32014731 0.19944948 16.97998047 0.31738281 C18.90634614 0.35572168 20.8327846 0.39056582 22.75927734 0.421875 C25.52467918 0.46741945 28.28957769 0.52543037 31.0546875 0.5859375 C32.3516304 0.60326431 32.3516304 0.60326431 33.67477417 0.62094116 C39.77225659 0.77225659 39.77225659 0.77225659 42 3 C28.8 3 15.6 3 2 3 C2.33 5.31 2.66 7.62 3 10 C1.5 8.9375 1.5 8.9375 0 7 C-0.06038969 4.66744828 -0.06471498 2.33243573 0 0 Z " fill="#9CB7F0" transform="translate(98,51)"/>
<path d="M0 0 C3.1875 -0.3125 3.1875 -0.3125 6 0 C5.38364677 2.90199645 4.44963931 5.17049476 3 7.75 C0.86143424 11.87216299 0.32935191 15.38907332 0 20 C-1.98 20 -3.96 20 -6 20 C-6 17.69 -6 15.38 -6 13 C-5.67 13 -5.34 13 -5 13 C-5 14.98 -5 16.96 -5 19 C-3.68 19 -2.36 19 -1 19 C-1 17.741875 -1 16.48375 -1 15.1875 C-1 12.79166667 -1 10.39583333 -1 8 C-1.99 8 -2.98 8 -4 8 C-4 7.34 -4 6.68 -4 6 C-4.66 6 -5.32 6 -6 6 C-5.67 4.68 -5.34 3.36 -5 2 C-4.01 3.485 -4.01 3.485 -3 5 C-2.62875 4.175 -2.2575 3.35 -1.875 2.5 C-1.25625 1.675 -0.6375 0.85 0 0 Z " fill="#949494" transform="translate(176,134)"/>
<path d="M0 0 C1.98 0 3.96 0 6 0 C6 5.94 6 11.88 6 18 C5.01 18 4.02 18 3 18 C3 14.37 3 10.74 3 7 C1.68 7.33 0.36 7.66 -1 8 C-1.04241723 5.66705225 -1.04092937 3.33297433 -1 1 C-0.67 0.67 -0.34 0.34 0 0 Z " fill="#151515" transform="translate(97,135)"/>
<path d="M0 0 C0.33 0.99 0.66 1.98 1 3 C-0.22265625 5.3125 -0.22265625 5.3125 -2.0625 8 C-4.60181512 11.82159353 -6.96292884 15.6399673 -9.125 19.6875 C-11.56830166 24.2588386 -14.20154041 28.63769534 -17 33 C-18.35439668 30.29120665 -18.06501451 27.99066732 -18 25 C-17.01 25 -16.02 25 -15 25 C-15 23.68 -15 22.36 -15 21 C-14.34 21 -13.68 21 -13 21 C-13 20.34 -13 19.68 -13 19 C-12.01 19 -11.02 19 -10 19 C-9.34 15.7 -8.68 12.4 -8 9 C-7.34 9 -6.68 9 -6 9 C-6 8.34 -6 7.68 -6 7 C-5.34 7 -4.68 7 -4 7 C-4 6.01 -4 5.02 -4 4 C-2 1.8125 -2 1.8125 0 0 Z " fill="#E47B7B" transform="translate(90,64)"/>
<path d="M0 0 C1.32 0 2.64 0 4 0 C4.33 0.99 4.66 1.98 5 3 C5.33 2.01 5.66 1.02 6 0 C6.99 0 7.98 0 9 0 C9 3.3 9 6.6 9 10 C8.01 10.495 8.01 10.495 7 11 C5.68 9.68 4.36 8.36 3 7 C2.34 8.32 1.68 9.64 1 11 C0 10 0 10 -0.09765625 7.71484375 C-0.08605469 6.79832031 -0.07445313 5.88179687 -0.0625 4.9375 C-0.05347656 4.01839844 -0.04445313 3.09929687 -0.03515625 2.15234375 C-0.02355469 1.44207031 -0.01195313 0.73179687 0 0 Z " fill="#D1D1D1" transform="translate(126,169)"/>
<path d="M0 0 C5 1 5 1 6.3125 2.8125 C7 5 7 5 7 9 C6.01 9 5.02 9 4 9 C3.67 11.64 3.34 14.28 3 17 C2.01 17 1.02 17 0 17 C0 11.39 0 5.78 0 0 Z " fill="#0A0A0A" transform="translate(83,136)"/>
<path d="M0 0 C1.11841368 2.08770553 1.9708176 3.85408801 2.4375 6.1875 C2.623125 6.785625 2.80875 7.38375 3 8 C3.99 8.33 4.98 8.66 6 9 C6 9.66 6 10.32 6 11 C-8.19 11 -22.38 11 -37 11 C-36.67 9.68 -36.34 8.36 -36 7 C-34.515 7.99 -34.515 7.99 -33 9 C-29.73309921 9.29388429 -29.73309921 9.29388429 -25.99609375 9.23046875 C-24.97745995 9.22978142 -24.97745995 9.22978142 -23.93824768 9.2290802 C-22.50511931 9.2260633 -21.07199406 9.21819378 -19.63891602 9.20581055 C-17.44210231 9.18753828 -15.24570995 9.18530106 -13.04882812 9.18554688 C-6.32101727 9.56340997 -6.32101727 9.56340997 0 8 C-0.2784375 6.8553125 -0.2784375 6.8553125 -0.5625 5.6875 C-1 3 -1 3 0 0 Z " fill="#0935A5" transform="translate(160,88)"/>
<path d="M0 0 C2.31 0 4.62 0 7 0 C7 0.66 7 1.32 7 2 C5.35 2 3.7 2 2 2 C2 7.61 2 13.22 2 19 C2.66 19 3.32 19 4 19 C4 15.37 4 11.74 4 8 C4.66 8 5.32 8 6 8 C5.67 11.96 5.34 15.92 5 20 C3.35 20 1.7 20 0 20 C0 13.4 0 6.8 0 0 Z " fill="#8B8B8B" transform="translate(144,134)"/>
<path d="M0 0 C2.68853232 0.2830034 4.58222312 0.73540798 6.875 2.1875 C8 4 8 4 7.8125 7.125 C7.544375 8.07375 7.27625 9.0225 7 10 C4.29120665 11.35439668 1.99066732 11.06501451 -1 11 C-1.02688151 9.35425434 -1.04634123 7.70838587 -1.0625 6.0625 C-1.07410156 5.14597656 -1.08570312 4.22945312 -1.09765625 3.28515625 C-1 1 -1 1 0 0 Z M1 4 C1 5.65 1 7.3 1 9 C2.32 8.34 3.64 7.68 5 7 C4.67 6.01 4.34 5.02 4 4 C3.01 4 2.02 4 1 4 Z " fill="#D7D7D8" transform="translate(85,168)"/>
<path d="M0 0 C1.98 0 3.96 0 6 0 C6.33 1.65 6.66 3.3 7 5 C6.34 4.34 5.68 3.68 5 3 C2.42938689 2.35232207 2.42938689 2.35232207 0 2 C-0.33 3.98 -0.66 5.96 -1 8 C-0.01 8 0.98 8 2 8 C2.33 7.34 2.66 6.68 3 6 C4.4606285 8.64738916 5 9.89448334 5 13 C0.25 13.125 0.25 13.125 -2 12 C-2.33 12.66 -2.66 13.32 -3 14 C-3.66 14 -4.32 14 -5 14 C-4.54636829 12.41531323 -4.08688548 10.83230076 -3.625 9.25 C-3.36976562 8.36828125 -3.11453125 7.4865625 -2.8515625 6.578125 C-2.0790066 4.23919428 -1.16374324 2.16557438 0 0 Z M2 9 C1.67 9.99 1.34 10.98 1 12 C1.99 12 2.98 12 4 12 C3.67 11.01 3.34 10.02 3 9 C2.67 9 2.34 9 2 9 Z " fill="#6B6B6B" transform="translate(17,134)"/>
<path d="M0 0 C0.99 0 1.98 0 3 0 C3 1.32 3 2.64 3 4 C3.99 4 4.98 4 6 4 C5.67 2.68 5.34 1.36 5 0 C5.99 0 6.98 0 8 0 C8 3.3 8 6.6 8 10 C7.34 10 6.68 10 6 10 C6 9.01 6 8.02 6 7 C5.01 7 4.02 7 3 7 C3 7.99 3 8.98 3 10 C2.01 10 1.02 10 0 10 C0 6.7 0 3.4 0 0 Z " fill="#CFCFD0" transform="translate(36,169)"/>
<path d="M0 0 C1.32 0 2.64 0 4 0 C4.66 3.3 5.32 6.6 6 10 C5.01 10 4.02 10 3 10 C3 9.34 3 8.68 3 8 C2.01 8 1.02 8 0 8 C0 8.66 0 9.32 0 10 C-0.99 10 -1.98 10 -3 10 C-2.69201674 8.51988629 -2.378482 7.04092675 -2.0625 5.5625 C-1.88847656 4.73878906 -1.71445313 3.91507813 -1.53515625 3.06640625 C-1 1 -1 1 0 0 Z " fill="#CBCBCD" transform="translate(70,169)"/>
<path d="M0 0 C2.31 0 4.62 0 7 0 C7 0.66 7 1.32 7 2 C6.01 2.33 5.02 2.66 4 3 C4.66 3.33 5.32 3.66 6 4 C6.625 7.0625 6.625 7.0625 7 10 C4.69 10 2.38 10 0 10 C0 6.7 0 3.4 0 0 Z " fill="#EBEBEB" transform="translate(143,169)"/>
<path d="M0 0 C2.31 0 4.62 0 7 0 C7 0.66 7 1.32 7 2 C5.68 2 4.36 2 3 2 C3 2.66 3 3.32 3 4 C3.99 4 4.98 4 6 4 C6.33 5.98 6.66 7.96 7 10 C4.69 10 2.38 10 0 10 C0 6.7 0 3.4 0 0 Z " fill="#E8E8E9" transform="translate(53,169)"/>
<path d="M0 0 C-1.55415479 5.9057882 -4.59534467 10.97738893 -8 16 C-8.33 16 -8.66 16 -9 16 C-9.33 13.69 -9.66 11.38 -10 9 C-8.35 8.34 -6.7 7.68 -5 7 C-5 5.02 -5 3.04 -5 1 C-3 0 -3 0 0 0 Z " fill="#ED595B" transform="translate(111,29)"/>
<path d="M0 0 C4.02104119 1.34034706 5.16305684 3.91663705 7.25 7.375 C7.81460938 8.26058594 7.81460938 8.26058594 8.390625 9.1640625 C9.34745618 10.72594869 10.18250427 12.36087978 11 14 C10.67 14.99 10.34 15.98 10 17 C10 16.34 10 15.68 10 15 C9.34 15 8.68 15 8 15 C5.375 12.6875 5.375 12.6875 3 10 C3 9.01 3 8.02 3 7 C2.505 6.525625 2.01 6.05125 1.5 5.5625 C0 4 0 4 0 0 Z " fill="#7098EA" transform="translate(140,54)"/>
<path d="M0 0 C1.231394 2.46278801 1.07159196 4.2795055 1 7 C0.01 7.33 -0.98 7.66 -2 8 C-2.33 8.66 -2.66 9.32 -3 10 C-3.66 10 -4.32 10 -5 10 C-4.896875 10.9075 -4.79375 11.815 -4.6875 12.75 C-5 16 -5 16 -7.5 18.375 C-8.325 18.91125 -9.15 19.4475 -10 20 C-10 16.80389448 -9.45328458 15.58282374 -8 12.8125 C-7.62875 12.09707031 -7.2575 11.38164063 -6.875 10.64453125 C-6.58625 10.10183594 -6.2975 9.55914062 -6 9 C-5.34 9 -4.68 9 -4 9 C-3.896875 8.2575 -3.79375 7.515 -3.6875 6.75 C-2.95746496 3.82985982 -1.93210602 2.26812446 0 0 Z " fill="#EB8586" transform="translate(61,38)"/>
<path d="M0 0 C1.65 0 3.3 0 5 0 C5.1875 2.375 5.1875 2.375 5 5 C2 7 2 7 -2 7 C-2 6.34 -2 5.68 -2 5 C-2.66 4.67 -3.32 4.34 -4 4 C-3.01 4 -2.02 4 -1 4 C-0.67 2.68 -0.34 1.36 0 0 Z " fill="#4D4D4D" transform="translate(51,146)"/>
<path d="M0 0 C0.99 0 1.98 0 3 0 C3 2.64 3 5.28 3 8 C4.32 8 5.64 8 7 8 C7 8.66 7 9.32 7 10 C4.69 10 2.38 10 0 10 C0 6.7 0 3.4 0 0 Z " fill="#DBDBDC" transform="translate(101,169)"/>
<path d="M0 0 C1.44926837 4.45552099 0.1032744 6.86856813 -2 11 C-3.5625 12.9375 -3.5625 12.9375 -5 14 C-5.66 14 -6.32 14 -7 14 C-5.53967505 8.68972746 -3.01679014 4.53669968 0 0 Z " fill="#EB7174" transform="translate(69,24)"/>
<path d="M0 0 C1.125 1.8125 1.125 1.8125 0.8125 4 C0.4721875 4.8971875 0.4721875 4.8971875 0.125 5.8125 C-1.195 5.8125 -2.515 5.8125 -3.875 5.8125 C-3.875 5.1525 -3.875 4.4925 -3.875 3.8125 C-5.195 3.8125 -6.515 3.8125 -7.875 3.8125 C-7.545 2.4925 -7.215 1.1725 -6.875 -0.1875 C-2.39774927 -1.51857454 -2.39774927 -1.51857454 0 0 Z " fill="#063CC4" transform="translate(125.875,87.1875)"/>
<path d="M0 0 C0.33 1.32 0.66 2.64 1 4 C0.34 4 -0.32 4 -1 4 C-0.938125 4.886875 -0.87625 5.77375 -0.8125 6.6875 C-1.02064474 10.36472369 -1.78206583 12.09962455 -4 15 C-4.66 15 -5.32 15 -6 15 C-5.61471495 8.83543922 -3.52913975 5.01372252 0 0 Z " fill="#DF5F60" transform="translate(41,72)"/>
<path d="M0 0 C0.33 0 0.66 0 1 0 C1.20086443 3.71599191 1.1519437 4.77208445 -1 8 C-1.99 8 -2.98 8 -4 8 C-4 8.66 -4 9.32 -4 10 C-4.66 10 -5.32 10 -6 10 C-5.67 9.01 -5.34 8.02 -5 7 C-4.34 7 -3.68 7 -3 7 C-3 6.34 -3 5.68 -3 5 C-2.34 5 -1.68 5 -1 5 C-0.67 3.35 -0.34 1.7 0 0 Z M-7 10 C-6.34 10.33 -5.68 10.66 -5 11 C-5.33 12.32 -5.66 13.64 -6 15 C-7.32 14.34 -8.64 13.68 -10 13 C-9.01 12.01 -8.02 11.02 -7 10 Z " fill="#DA0708" transform="translate(81,75)"/>
<path d="M0 0 C1.98 0 3.96 0 6 0 C6.33 1.65 6.66 3.3 7 5 C6.34 4.34 5.68 3.68 5 3 C3.68 2.67 2.36 2.34 1 2 C1 7.61 1 13.22 1 19 C0.67 19 0.34 19 0 19 C0 12.73 0 6.46 0 0 Z " fill="#7F7F7F" transform="translate(82,134)"/>
<path d="M0 0 C0.99 0.33 1.98 0.66 3 1 C2.67 2.32 2.34 3.64 2 5 C1.34 5 0.68 5 0 5 C-0.33 5.99 -0.66 6.98 -1 8 C-2.32 8 -3.64 8 -5 8 C-5 7.01 -5 6.02 -5 5 C-4.34 5 -3.68 5 -3 5 C-2.87625 4.360625 -2.7525 3.72125 -2.625 3.0625 C-2.41875 2.381875 -2.2125 1.70125 -2 1 C-1.34 0.67 -0.68 0.34 0 0 Z " fill="#DD0201" transform="translate(37,86)"/>
<path d="M0 0 C1 2 1 2 0.0625 5.125 C-0.288125 6.07375 -0.63875 7.0225 -1 8 C-1.66 8 -2.32 8 -3 8 C-3.12375 8.804375 -3.2475 9.60875 -3.375 10.4375 C-3.58125 11.283125 -3.7875 12.12875 -4 13 C-4.99 13.495 -4.99 13.495 -6 14 C-5.57202798 8.29370646 -3.15654048 4.58921384 0 0 Z " fill="#E0787B" transform="translate(35,83)"/>
<path d="M0 0 C0.99 0 1.98 0 3 0 C3 3.3 3 6.6 3 10 C2.01 10 1.02 10 0 10 C0 6.7 0 3.4 0 0 Z " fill="#DEDEDE" transform="translate(114,169)"/>
<path d="M0 0 C2.98619537 2.55959603 4.48551562 5.3940848 6 9 C6.1875 11.875 6.1875 11.875 6 14 C4 12.9375 4 12.9375 2 11 C1.75 7.3125 1.75 7.3125 2 4 C1.34 4 0.68 4 0 4 C0 2.68 0 1.36 0 0 Z " fill="#6783D1" transform="translate(159,84)"/>
<path d="M0 0 C1.98 0 3.96 0 6 0 C4.125 6.75 4.125 6.75 3 9 C0 3.375 0 3.375 0 0 Z " fill="#8A8A8A" transform="translate(164,134)"/>
<path d="M0 0 C1.31223496 3.93670488 0.24296256 6.12488144 -1 10 C-1.66 10 -2.32 10 -3 10 C-3 10.66 -3 11.32 -3 12 C-4.98 12.99 -4.98 12.99 -7 14 C-5.53967505 8.68972746 -3.01679014 4.53669968 0 0 Z " fill="#E88E90" transform="translate(49,58)"/>
<path d="M0 0 C1.32 0.33 2.64 0.66 4 1 C2.8141763 4.37503669 1.72426311 6.64722731 -1 9 C-1.625 6.1875 -1.625 6.1875 -2 3 C-1.34 2.01 -0.68 1.02 0 0 Z " fill="#F1595D" transform="translate(114,17)"/>
<path d="M0 0 C1.98 0 3.96 0 6 0 C6 0.66 6 1.32 6 2 C4.68 2 3.36 2 2 2 C2 2.66 2 3.32 2 4 C2.66 4 3.32 4 4 4 C4 4.66 4 5.32 4 6 C3.01 6 2.02 6 1 6 C0.67 6.99 0.34 7.98 0 9 C0 6.03 0 3.06 0 0 Z " fill="#BFBFC1" transform="translate(54,169)"/>
<path d="M0 0 C1.65 0 3.3 0 5 0 C5 0.99 5 1.98 5 3 C4.34 3 3.68 3 3 3 C3 4.65 3 6.3 3 8 C2.34 8 1.68 8 1 8 C0.67 8.99 0.34 9.98 0 11 C-0.33 11 -0.66 11 -1 11 C-1 9.35 -1 7.7 -1 6 C-0.34 5.67 0.32 5.34 1 5 C0.67 3.35 0.34 1.7 0 0 Z " fill="#E1737B" transform="translate(95,48)"/>
<path d="M0 0 C0.33 0.99 0.66 1.98 1 3 C2.65 3 4.3 3 6 3 C6.33 2.01 6.66 1.02 7 0 C7.33 1.98 7.66 3.96 8 6 C7.01 6 6.02 6 5 6 C5 5.34 5 4.68 5 4 C4.01 4 3.02 4 2 4 C2 4.66 2 5.32 2 6 C1.01 6 0.02 6 -1 6 C-0.67 4.02 -0.34 2.04 0 0 Z " fill="#E7E7E8" transform="translate(68,173)"/>
<path d="M0 0 C1.98 0 3.96 0 6 0 C6 0.66 6 1.32 6 2 C5.01 2.33 4.02 2.66 3 3 C2.67 3.66 2.34 4.32 2 5 C2.66 5.33 3.32 5.66 4 6 C3.01 6 2.02 6 1 6 C0.67 6.99 0.34 7.98 0 9 C0 6.03 0 3.06 0 0 Z " fill="#C4C4C5" transform="translate(144,169)"/>
<path d="M0 0 C1.65 0 3.3 0 5 0 C5.22174933 1.45635371 5.42698698 2.91522956 5.625 4.375 C5.74101563 5.18710938 5.85703125 5.99921875 5.9765625 6.8359375 C5.98429687 7.55007812 5.99203125 8.26421875 6 9 C5.34 9.66 4.68 10.32 4 11 C4.061875 10.071875 4.12375 9.14375 4.1875 8.1875 C4.30894264 5.01604897 4.30894264 5.01604897 2.5 3.125 C2.005 2.75375 1.51 2.3825 1 2 C0.01 2.66 -0.98 3.32 -2 4 C-1.34 2.68 -0.68 1.36 0 0 Z " fill="#AEAEAE" transform="translate(67,138)"/>
<path d="M0 0 C1.98 0 3.96 0 6 0 C6.33 1.65 6.66 3.3 7 5 C6.34 4.34 5.68 3.68 5 3 C2.42938689 2.35232207 2.42938689 2.35232207 0 2 C-0.33 3.32 -0.66 4.64 -1 6 C-1.33 5.34 -1.66 4.68 -2 4 C-1.0625 1.875 -1.0625 1.875 0 0 Z " fill="#ADADAD" transform="translate(17,134)"/>
<path d="M0 0 C0.66 0.33 1.32 0.66 2 1 C2.625 3.0625 2.625 3.0625 3 5 C-0.0979597 6.54897985 -3.26216552 5.83239539 -6.625 5.5625 C-7.33140625 5.51029297 -8.0378125 5.45808594 -8.765625 5.40429688 C-10.51079987 5.27458793 -12.25545725 5.13795046 -14 5 C-14 4.67 -14 4.34 -14 4 C-9.05 4 -4.1 4 1 4 C0.67 2.68 0.34 1.36 0 0 Z " fill="#A1B0D3" transform="translate(165,95)"/>
<path d="M0 0 C2.475 0.99 2.475 0.99 5 2 C5.33 4.97 5.66 7.94 6 11 C2.90407165 7.4912812 1.25805377 4.50802601 0 0 Z " fill="#92AFEA" transform="translate(101,61)"/>
<path d="M0 0 C3.68754757 0.49831724 5.60490662 1.10067643 8 4 C7.67 4.99 7.34 5.98 7 7 C6.34 6.34 5.68 5.68 5 5 C2.93125966 4.3574765 2.93125966 4.3574765 1 4 C0.67 2.68 0.34 1.36 0 0 Z " fill="#E1E1E2" transform="translate(85,168)"/>
<path d="M0 0 C0.99 0.33 1.98 0.66 3 1 C3 1.66 3 2.32 3 3 C3.66 3 4.32 3 5 3 C5.33 5.64 5.66 8.28 6 11 C2.90407165 7.4912812 1.25805377 4.50802601 0 0 Z " fill="#9AAEE0" transform="translate(112,80)"/>
<path d="M0 0 C1 3 1 3 0.00390625 5.04296875 C-0.47175781 5.75066406 -0.94742188 6.45835938 -1.4375 7.1875 C-1.91058594 7.90292969 -2.38367188 8.61835937 -2.87109375 9.35546875 C-3.24363281 9.89816406 -3.61617188 10.44085938 -4 11 C-4.66 9.68 -5.32 8.36 -6 7 C-5.34 7 -4.68 7 -4 7 C-4 6.01 -4 5.02 -4 4 C-2 1.8125 -2 1.8125 0 0 Z " fill="#E79292" transform="translate(90,64)"/>
<path d="M0 0 C0.99 0.33 1.98 0.66 3 1 C3.33 3.97 3.66 6.94 4 10 C1.16747846 7.16747846 0.14262292 5.7135245 -1 2 C-0.67 1.34 -0.34 0.68 0 0 Z " fill="#6289E0" transform="translate(108,70)"/>
<path d="M0 0 C0.66 0 1.32 0 2 0 C2 1.32 2 2.64 2 4 C-0.5 6.25 -0.5 6.25 -3 8 C-3 4.40142046 -2.04169485 2.90548882 0 0 Z " fill="#E87C7D" transform="translate(54,50)"/>
<path d="M0 0 C0.66 0 1.32 0 2 0 C2 0.66 2 1.32 2 2 C2.99 2 3.98 2 5 2 C5.33 1.34 5.66 0.68 6 0 C6.33 1.32 6.66 2.64 7 4 C3.86650268 5.04449911 3.01031744 4.93423645 0 4 C0 2.68 0 1.36 0 0 Z " fill="#8B8B8B" transform="translate(14,140)"/>
<path d="M0 0 C1.41928261 2.64932753 2.31863453 5.07986225 3 8 C3.33 8.66 3.66 9.32 4 10 C2.02 10 0.04 10 -2 10 C-1.34 9.34 -0.68 8.68 0 8 C-0.30027117 6.32706064 -0.63557767 4.66014616 -1 3 C-0.67 2.01 -0.34 1.02 0 0 Z " fill="#0437BD" transform="translate(160,88)"/>
<path d="M0 0 C0.99 0 1.98 0 3 0 C2.67 1.32 2.34 2.64 2 4 C1.01 4 0.02 4 -1 4 C-1 4.99 -1 5.98 -1 7 C-1.66 7 -2.32 7 -3 7 C-1.125 2.25 -1.125 2.25 0 0 Z " fill="#EE7E80" transform="translate(73,17)"/>
<path d="M0 0 C1.32 0 2.64 0 4 0 C4.33 2.31 4.66 4.62 5 7 C2.47411298 4.63707344 1.11179163 3.33537489 0 0 Z " fill="#728CD3" transform="translate(118,91)"/>
<path d="M0 0 C3.60654039 2.40436026 3.85452932 3.94679607 5 8 C3.68 7.67 2.36 7.34 1 7 C0.67 4.69 0.34 2.38 0 0 Z " fill="#92AAE2" transform="translate(151,71)"/>
</svg>
